<svg xmlns="http://www.w3.org/2000/svg" viewBox="0 0 143 127"><g transform="translate(0-38)"><path fill="#009ee0" fill-rule="evenodd" d="m68.51 100.55c24.04 4.736 30.889 13.383 42.5 18.793 6.479-4.35 11.442-10.902 13.721-18.793z"/><path d="m59.35 98.43c4.2 14.545 17.511 24.562 32.65 24.568 6.922-.005 13.458-2.109 18.918-5.775-11.611-5.41-18.461-14.06-42.5-18.793zm51.568 18.793c.405-.272.804-.553 1.197-.842-.393.289-.792.57-1.197.842m1.197-.842c1.964-1.444 3.773-3.097 5.391-4.936-1.618 1.838-3.427 3.491-5.391 4.936m5.391-4.936c.316-.359.623-.725.924-1.098-.301.372-.608.739-.924 1.098m7.133-13.02c-.139.482-.29.958-.449 1.43.159-.472.31-.948.449-1.43m-.555 1.727c-.125.361-.254.72-.391 1.074.137-.354.265-.713.391-1.074m-.561 1.498c-.129.321-.259.641-.396.957.138-.316.268-.636.396-.957m-.582 1.365c-.135.297-.27.595-.412.887.143-.293.278-.589.412-.887m-.672 1.398c-.134.264-.269.526-.41.785.141-.259.276-.522.41-.785m-.65 1.221c-.166.295-.336.589-.51.879.174-.29.344-.583.51-.879m-.725 1.229c-.185.3-.374.596-.568.889.194-.293.383-.589.568-.889m-.773 1.197c-.216.318-.436.632-.662.941.226-.31.446-.623.662-.941m-.824 1.162c-.253.341-.512.677-.777 1.01.265-.331.525-.667.777-1.01"/><path fill="#ffb400" d="m22 48v4h8l-4 4h5l6-6-6-6h-5l4 4z" transform="matrix(1.46667 0 0 1.33333-19.267 31.33)"/><g fill="#dc0067"><path d="M34 71.999998A34 34 0 0 0 0 106 34 34 0 0 0 34 140 34 34 0 0 0 68 106 34 34 0 0 0 34 71.999998m0 2A32 32 0 0 1 66 106 32 32 0 0 1 34 138 32 32 0 0 1 2 106 32 32 0 0 1 34 73.999998"/><path d="m92 53a36 36 0 0 0 -36 36A36 36 0 0 0 92 125a36 36 0 0 0 36 -35.999997 36 36 0 0 0 -36 -36m0 2a34 34 0 0 1 34 34A34 34 0 0 1 92 123 34 34 0 0 1 58 89a34 34 0 0 1 34 -34"/></g></g><path fill="#ffb400" d="m81 59l-6-6h13v-6h-13l6-6h-8l-9 9 9 9z" transform="matrix(.91667 0 0 .88889 22.333 28.03)"/><text font-family="Droid Sans" letter-spacing="0" x="-1.79" word-spacing="0" y="164.84" font-weight="bold" line-height="87.00000048%" font-size="19.927" transform="matrix(1.0006 0 0 .99939 0-38)">Freifunk-NR.de</text><g transform="translate(0-38)"><path d="m57 92h80v3h-80z"/><g fill="none" stroke="#000" stroke-width=".5" transform="translate(-16 27)"><path d="m96.21 66.49l24.307-32.527"/><path d="m89.58 66.6l31.497-34.37"/><path d="m83.15 66.38l38.02-35.08"/><path d="m76.77 66.4l44.32-35.698"/><path d="m73.12 60.901l48.58-31.919"/><path d="m73.46 57.663l48.34-29.359"/><path d="m73.69 54.846l48.556-27.377"/><path d="m74.34 52.39l47.594-25.375"/><path d="m75.04 50.1l46.746-23.578"/><path d="m75.837 47.996l46.02-22.09"/><path d="m73.1 64.834l48.37-35.07"/></g><path d="m104.94 51.21l-.861 9.988-7.514 33.34h19.12l-7.514-33.34-.861-9.988-1.18.672v-.002l-.004.002-.004-.002v.002zm1.184 10.03c.159.067.292.206.332.402.109.531 7.305 32.14 7.305 32.14h-15.274c0 0 7.195-31.605 7.305-32.14.04-.196.173-.336.332-.402"/><g stroke="#000" stroke-width=".5" transform="translate(-16 27)"><g fill="#f60" fill-rule="evenodd"><path d="m148.04 66.49l-24.307-32.527"/><path d="m154.67 66.6l-31.497-34.37"/><path d="m158.45 63.95l-38.02-35.08 2.652 2.431"/><path d="m158.4 59.09l-35.23-28.384"/><path d="m157.28 51.775l-34.726-22.793"/><path d="m156.25 48.825l-33.795-20.52"/><path d="m155.58 46.4l-33.574-18.936"/><path d="m154.6 42.737l-32.14-16.219"/><path d="m152.62 40.42l-30.22-14.507"/><path d="m157.7 55.09l-34.913-25.323"/></g><path fill="none" d="m154.72 44.3l-32.406-17.283"/></g></g><g fill="#dc0067" transform="translate(0-38)"><path d="m92 53a36 36 0 0 0 -36 36 36 36 0 0 0 36 36v-2A34 34 0 0 1 58 89 34 34 0 0 1 92 55z"/><path d="m92 38a51 51 0 0 0 -51 51A51 51 0 0 0 92 140a51 51 0 0 0 51 -50.999998 51 51 0 0 0 -51 -51m0 9a42 42 0 0 1 42 42A42 42 0 0 1 92 131 42 42 0 0 1 50 89a42 42 0 0 1 42 -42"/></g></svg>