<svg xmlns="http://www.w3.org/2000/svg" viewBox="0 0 102 102"><g transform="translate(0-63)"><path fill="#009ee0" fill-rule="evenodd" d="m27.506 125.55c24.04 4.736 30.889 13.383 42.5 18.793 6.479-4.35 11.442-10.902 13.721-18.793z"/><path d="m18.35 123.43c4.2 14.545 17.511 24.562 32.65 24.568 6.922-.005 13.458-2.109 18.918-5.775-11.611-5.41-18.461-14.06-42.5-18.793zm51.568 18.793c.405-.272.804-.553 1.197-.842-.393.289-.792.57-1.197.842m1.197-.842c1.964-1.444 3.773-3.097 5.391-4.936-1.618 1.838-3.427 3.491-5.391 4.936m5.391-4.936c.316-.359.623-.725.924-1.098-.301.372-.608.739-.924 1.098m7.133-13.02c-.139.482-.29.958-.449 1.43.159-.472.31-.948.449-1.43m-.555 1.727c-.125.361-.254.72-.391 1.074.137-.354.265-.713.391-1.074m-.561 1.498c-.129.321-.259.641-.396.957.138-.316.268-.636.396-.957m-.582 1.365c-.135.297-.27.595-.412.887.143-.293.278-.589.412-.887m-.672 1.398c-.134.264-.269.526-.41.785.141-.259.276-.522.41-.785m-.65 1.221c-.166.295-.336.589-.51.879.174-.29.344-.583.51-.879m-.725 1.229c-.185.3-.374.596-.568.889.194-.293.383-.589.568-.889m-.773 1.197c-.216.318-.436.632-.662.941.226-.31.446-.623.662-.941m-.824 1.162c-.253.341-.512.677-.777 1.01.265-.331.525-.667.777-1.01"/><path fill="#dc0067" d="M51 78A36 36 0 0 0 15 114 36 36 0 0 0 51 150 36 36 0 0 0 87 114 36 36 0 0 0 51 78m0 2A34 34 0 0 1 85 114 34 34 0 0 1 51 148 34 34 0 0 1 17 114 34 34 0 0 1 51 80"/><path d="m16 117h80v3h-80z"/><g fill="none" stroke="#000" stroke-width=".5" transform="translate(-57 52)"><path d="m96.21 66.49l24.307-32.527"/><path d="m89.58 66.6l31.497-34.37"/><path d="m83.15 66.38l38.02-35.08"/><path d="m76.77 66.4l44.32-35.698"/><path d="m73.12 60.901l48.58-31.919"/><path d="m73.46 57.663l48.34-29.359"/><path d="m73.69 54.846l48.556-27.377"/><path d="m74.34 52.39l47.594-25.375"/><path d="m75.04 50.1l46.746-23.578"/><path d="m75.837 47.996l46.02-22.09"/><path d="m73.1 64.834l48.37-35.07"/></g><path d="m63.938 76.21l-.861 9.988-7.514 33.34h19.12l-7.514-33.34-.861-9.988-1.18.672v-.002l-.004.002-.004-.002v.002zm1.184 10.03c.159.067.292.206.332.402.109.531 7.305 32.14 7.305 32.14h-15.274c0 0 7.195-31.605 7.305-32.14.04-.196.173-.336.332-.402"/><g stroke="#000" stroke-width=".5" transform="translate(-57 52)"><g fill="#f60" fill-rule="evenodd"><path d="m148.04 66.49l-24.307-32.527"/><path d="m154.67 66.6l-31.497-34.37"/><path d="m158.45 63.95l-38.02-35.08 2.652 2.431"/><path d="m158.4 59.09l-35.23-28.384"/><path d="m157.28 51.775l-34.726-22.793"/><path d="m156.25 48.825l-33.795-20.52"/><path d="m155.58 46.4l-33.574-18.936"/><path d="m154.6 42.737l-32.14-16.219"/><path d="m152.62 40.42l-30.22-14.507"/><path d="m157.7 55.09l-34.913-25.323"/></g><path fill="none" d="m154.72 44.3l-32.406-17.283"/></g><g fill="#ffb400"><path d="m64 50l9 9h8l-6-6h13v-6h-13l6-6h-8z" transform="matrix(.33333 0 0 .38889-.333 95.06)"/><path d="m88 47h-13l6-6h-8l-9 9 9 9h8l-6-6h13z" transform="matrix(.33333 0 0 .38889 9.667 95.06)"/><path d="m75 53h13v-6h-13l6-6h-8l-9 9 9 9h8z" transform="matrix(.33333 0 0 .38889 19.667 95.06)"/><path d="m81 59l-6-6h13v-6h-13l6-6h-8l-9 9 9 9z" transform="matrix(.33333 0 0 .38889 29.667 95.06)"/></g><g font-family="Droid Sans" fill="#fff" word-spacing="0" line-height="87.00000048%" font-weight="bold" letter-spacing="0" font-size="12"><text x="25.853" y="135.56">Freifunk</text><text x="41.979" y="145.56">NR</text></g><g fill="#dc0067"><path d="m51 78a36 36 0 0 0 -36 36 36 36 0 0 0 36 36v-2A34 34 0 0 1 17 114 34 34 0 0 1 51 80z"/><path d="M51 63A51 51 0 0 0 0 114 51 51 0 0 0 51 165 51 51 0 0 0 102 114 51 51 0 0 0 51 63m0 9A42 42 0 0 1 93 114 42 42 0 0 1 51 156 42 42 0 0 1 9 114 42 42 0 0 1 51 72"/></g></g></svg>